<?xml version="1.0" standalone="no"?>
<!DOCTYPE svg PUBLIC "-//W3C//DTD SVG 20010904//EN"
 "http://www.w3.org/TR/2001/REC-SVG-20010904/DTD/svg10.dtd">
<svg version="1.0" class="bg-red-500 w-10 max-w-sg" xmlns="http://www.w3.org/2000/svg"
 width="12pt" height="12pt" viewBox="0 0 12.000000 12.000000"
 preserveAspectRatio="xMidYMid meet">
<metadata>
Created by potrace 1.16, written by Peter Selinger 2001-2019
</metadata>
<g transform="translate(0.000000,12.000000) scale(0.100000,-0.100000)"
fill="#000000" stroke="none">
<path d="M1046 5104 c-168 -30 -367 -114 -505 -212 -276 -196 -468 -499 -526
-828 -23 -130 -23 -2878 0 -3008 31 -179 110 -371 212 -515 65 -92 210 -238
301 -304 148 -107 347 -190 526 -222 132 -23 2878 -23 3010 0 264 46 496 168
688 362 190 193 308 419 353 680 23 129 22 2878 0 3007 -47 267 -171 501 -368
693 -152 148 -308 243 -494 303 -194 62 -129 60 -1692 59 -1189 -1 -1439 -3
-1505 -15z m3017 -447 c302 -94 500 -292 594 -594 l28 -88 0 -1415 0 -1415
-28 -88 c-94 -302 -292 -500 -594 -594 l-88 -28 -1415 0 -1415 0 -88 28 c-302
94 -500 292 -594 594 l-28 88 0 1415 0 1415 28 88 c105 336 368 568 700 617
29 4 673 7 1432 6 l1380 -1 88 -28z"/>
<path d="M2460 3820 c-50 -26 -87 -68 -105 -119 -13 -37 -15 -113 -15 -482 l0
-439 -439 0 c-479 0 -495 -2 -554 -58 -46 -44 -67 -94 -67 -162 0 -73 23 -125
75 -168 62 -50 79 -52 549 -52 l436 0 0 -439 c0 -479 2 -495 58 -554 44 -46
94 -67 162 -67 73 0 125 23 168 75 50 62 52 79 52 549 l0 436 436 0 c470 0
487 2 549 52 99 82 103 240 8 330 -59 56 -75 58 -554 58 l-439 0 0 436 c0 298
-4 449 -11 475 -15 50 -62 105 -110 129 -51 26 -150 26 -199 0z"/>
</g>
</svg>
