<?xml version="1.0" standalone="no"?>
<!DOCTYPE svg PUBLIC "-//W3C//DTD SVG 20010904//EN"
 "http://www.w3.org/TR/2001/REC-SVG-20010904/DTD/svg10.dtd">
<svg version="1.0" xmlns="http://www.w3.org/2000/svg"
 width="1024.000000pt" height="1024.000000pt" viewBox="0 0 1024.000000 1024.000000"
 preserveAspectRatio="xMidYMid meet">
<metadata>
Created by potrace 1.16, written by Peter Selinger 2001-2019
</metadata>
<g transform="translate(0.000000,1024.000000) scale(0.100000,-0.100000)"
fill="#000000" stroke="none">
<path d="M0 5120 l0 -5120 5120 0 5120 0 0 5120 0 5120 -5120 0 -5120 0 0
-5120z m5622 4776 c56 -24 177 -76 268 -116 91 -40 194 -85 230 -100 36 -15
148 -65 250 -110 102 -45 313 -137 470 -205 233 -100 1114 -481 1380 -595 36
-15 139 -60 230 -100 91 -39 320 -138 510 -220 190 -81 417 -180 505 -220 88
-39 186 -83 218 -97 55 -25 57 -27 40 -43 -10 -10 -21 -16 -25 -13 -5 2 -8 -1
-8 -6 0 -6 -3 -10 -7 -10 -5 1 -15 1 -23 0 -13 -1 -13 -2 0 -12 12 -8 10 -9
-8 -4 -15 4 -24 1 -28 -10 -4 -9 -12 -14 -19 -11 -6 2 -18 0 -26 -6 -11 -8
-10 -9 5 -4 15 5 15 2 -5 -19 -13 -13 -34 -25 -45 -25 -16 0 -21 -6 -21 -24 0
-18 4 -23 16 -19 13 3 12 2 -2 -7 -23 -15 -13 -29 16 -23 19 4 20 3 4 -7 -9
-6 -21 -9 -26 -6 -5 3 -11 -1 -15 -9 -8 -22 -23 -19 -123 20 -91 34 -484 200
-558 235 -22 10 -105 46 -185 80 -80 35 -163 70 -185 80 -22 10 -67 29 -100
43 -33 14 -96 41 -140 60 -44 19 -197 85 -340 146 -143 61 -289 125 -325 140
-36 16 -101 45 -145 64 -44 19 -118 52 -165 72 -47 21 -101 44 -120 52 -19 8
-48 21 -65 28 -16 8 -114 50 -216 94 -103 44 -211 91 -240 104 -54 25 -157 71
-319 142 -47 20 -118 52 -158 71 -40 19 -76 34 -79 34 -3 0 -29 11 -57 24 -89
42 -200 92 -236 106 -47 19 -119 61 -100 59 8 -1 24 -1 34 0 18 1 18 2 -3 25
-13 14 -20 29 -16 35 3 6 1 11 -5 11 -6 0 -9 4 -6 9 7 11 -121 84 -133 76 -14
-8 -20 -45 -9 -45 6 0 3 -9 -6 -19 -15 -16 -15 -21 -3 -32 12 -12 10 -17 -17
-35 -17 -11 -51 -28 -76 -38 -25 -10 -67 -28 -95 -41 -27 -13 -79 -35 -115
-50 -36 -14 -78 -32 -95 -40 -60 -28 -213 -94 -335 -145 -176 -74 -233 -101
-227 -107 3 -3 18 2 34 11 15 8 69 32 118 52 113 45 317 134 330 144 6 4 28
13 50 20 22 7 45 16 50 20 24 18 325 131 341 128 24 -4 32 -46 27 -149 -10
-198 -12 -179 27 -194 97 -36 147 -56 163 -65 9 -6 51 -24 91 -40 41 -16 94
-38 118 -49 24 -11 72 -32 108 -46 36 -15 84 -36 107 -46 23 -10 50 -18 60
-18 15 1 16 2 2 6 -10 2 -70 30 -135 62 -66 32 -136 63 -156 70 -21 7 -40 16
-43 21 -3 5 -22 14 -43 21 -53 17 -146 59 -153 70 -10 17 -4 288 6 298 11 11
184 -43 228 -71 12 -8 50 -25 85 -37 34 -11 70 -25 80 -30 54 -26 308 -136
372 -160 30 -12 71 -30 90 -40 38 -20 296 -131 306 -131 3 0 29 -11 57 -23 29
-13 117 -52 197 -87 80 -34 174 -76 209 -92 35 -16 87 -38 115 -50 28 -11 70
-29 93 -39 24 -11 45 -19 47 -19 2 0 37 -15 78 -34 40 -19 114 -51 163 -71 50
-21 115 -48 145 -62 30 -14 84 -37 120 -50 36 -14 70 -28 75 -33 6 -4 41 -20
79 -35 38 -15 77 -31 85 -36 9 -5 88 -40 176 -78 88 -38 243 -105 345 -149
286 -124 399 -172 407 -172 5 0 20 -6 34 -14 15 -7 67 -28 115 -46 49 -18 103
-44 121 -57 l32 -24 63 26 c86 36 142 65 150 79 10 15 10 -985 1 -1375 l-8
-304 -5 205 -6 205 -2 -242 -2 -243 -25 0 c-22 0 -25 4 -25 40 0 33 -3 40 -20
40 -17 0 -20 7 -20 40 0 22 -4 40 -10 40 -6 0 -11 -35 -11 -82 l-1 -83 -14
110 c-8 61 -18 139 -23 175 -6 36 -17 110 -25 165 -8 55 -18 123 -21 150 -7
56 -47 154 -82 201 -17 23 -35 33 -62 38 -22 3 -48 8 -58 11 -10 3 -4 -1 12
-9 l30 -14 -28 -11 c-16 -6 -31 -11 -33 -11 -3 0 -55 -25 -116 -55 -90 -45
-117 -54 -143 -49 -24 4 -35 2 -42 -10 -7 -13 -14 -14 -48 -4 -22 7 -43 17
-47 23 -5 7 -11 6 -18 -1 -7 -7 15 -19 75 -39 l85 -29 -1 -53 c-1 -29 -4 -53
-5 -53 -2 0 -22 9 -44 21 -22 12 -46 19 -54 16 -8 -3 -16 2 -19 12 -2 10 -17
21 -33 25 -29 7 -270 112 -289 126 -5 4 -46 21 -90 39 -44 18 -104 43 -133 57
-29 13 -55 24 -58 24 -3 0 -33 14 -67 31 -34 17 -91 42 -127 56 -36 14 -69 28
-75 32 -5 4 -32 16 -60 25 -105 38 -186 79 -173 88 9 6 6 7 -8 3 -14 -4 -64
13 -145 50 -68 30 -117 55 -109 55 9 1 5 6 -10 14 -14 8 -28 12 -32 9 -5 -2
-24 1 -43 8 -25 9 -31 16 -22 22 8 6 4 7 -11 4 -13 -3 -20 -1 -16 5 4 6 -2 8
-16 3 -16 -5 -20 -4 -15 5 5 9 1 10 -14 5 -14 -4 -21 -3 -19 6 2 7 -18 17 -47
24 -27 7 -64 20 -81 29 -50 26 -93 31 -100 12 -3 -9 -10 -13 -15 -10 -6 3 -16
1 -23 -5 -18 -15 -99 17 -92 36 3 8 -1 16 -9 19 -13 5 -13 8 0 21 8 8 15 18
15 22 0 4 -44 25 -97 46 -54 21 -145 62 -203 91 -58 28 -136 64 -175 79 -38
15 -92 38 -120 50 -27 12 -83 35 -122 50 -40 16 -73 32 -73 37 0 4 -8 8 -17 8
-10 0 -29 6 -43 14 -135 72 -183 96 -195 96 -8 0 -15 5 -15 11 0 6 -9 8 -20 4
-11 -3 -20 -3 -20 2 0 4 -29 22 -65 38 -35 17 -65 33 -65 38 0 4 -7 7 -15 7
-7 0 -19 8 -24 18 -6 9 -11 13 -11 7 0 -6 -3 -6 -8 1 -11 16 -103 64 -113 59
-4 -3 -6 -12 -2 -20 6 -18 2 -18 -31 -3 -26 11 -42 40 -31 57 6 11 51 -3 136
-42 30 -13 77 -34 104 -47 188 -83 236 -105 280 -125 93 -44 319 -142 470
-205 83 -34 173 -73 200 -86 28 -13 115 -51 195 -84 79 -33 148 -66 152 -73 9
-14 11 -1 9 48 -2 28 2 32 82 67 72 32 89 36 117 28 19 -5 36 -8 38 -5 2 2 -7
7 -22 11 -28 7 -36 24 -11 24 8 0 15 4 15 9 0 12 104 21 111 9 3 -5 21 -11 40
-13 29 -2 78 -22 214 -85 11 -6 50 -21 87 -35 37 -13 87 -33 110 -44 24 -10
84 -37 134 -60 98 -44 104 -46 104 -31 0 6 -6 10 -13 10 -7 0 -40 14 -72 30
-32 17 -64 30 -71 30 -7 0 -30 11 -50 25 -20 14 -43 25 -51 25 -8 0 -45 15
-81 34 -37 19 -85 42 -107 51 -22 9 -78 36 -125 60 -174 88 -194 101 -184 116
3 5 1 9 -4 9 -22 0 -44 150 -52 353 0 13 -43 -3 -60 -23 -8 -9 -40 -27 -71
-39 l-56 -22 -134 69 c-74 37 -169 83 -211 100 -42 18 -143 64 -223 102 -80
38 -157 73 -170 76 -13 3 -29 12 -35 19 -8 10 -4 14 15 17 14 3 28 1 31 -3 3
-5 14 -9 24 -9 10 0 21 -4 24 -9 4 -5 -4 -7 -16 -4 l-23 5 23 -17 c18 -13 26
-14 37 -5 8 7 20 10 27 7 7 -2 18 -6 23 -7 6 -1 19 -9 30 -16 11 -8 29 -14 40
-15 12 0 15 -3 6 -6 -11 -5 -11 -7 0 -14 9 -6 10 -9 2 -9 -6 0 -15 5 -18 10
-8 12 -25 13 -25 1 0 -11 59 -36 67 -27 3 3 2 6 -4 6 -13 0 -12 30 1 30 17 1
-87 53 -111 56 -12 1 -30 8 -40 14 -15 10 -14 10 10 5 36 -7 35 0 -3 14 -18 6
-28 6 -25 1 4 -6 -4 -10 -17 -10 -18 0 -20 2 -8 10 12 8 12 10 -3 16 -9 3 -24
1 -32 -6 -8 -7 -15 -10 -15 -6 0 3 -12 1 -26 -4 -16 -6 -32 -7 -42 -1 -12 7
-5 11 31 16 26 4 44 11 41 17 -4 5 -15 8 -25 5 -12 -3 -19 0 -19 10 0 10 -6
13 -20 9 -11 -3 -30 -9 -42 -12 -21 -6 -21 -6 -5 11 22 21 18 26 -11 18 -12
-3 -19 -9 -16 -14 6 -11 1 -11 -21 -3 -14 6 -10 10 16 22 29 13 31 16 14 20
-11 2 -25 8 -32 14 -6 5 -24 6 -40 3 -20 -4 -23 -3 -9 3 27 12 4 24 -29 16
-27 -7 -33 4 -13 24 9 9 4 12 -23 12 -18 0 -41 5 -49 10 -11 8 -7 9 15 4 22
-5 27 -3 20 4 -6 6 -20 13 -32 15 -11 1 -29 9 -38 17 -24 20 -125 61 -155 63
-14 1 -24 7 -23 14 2 9 -4 10 -20 4 -12 -5 -21 -16 -21 -24 2 -16 -19 -13 -44
6 -7 5 -15 7 -18 4 -3 -3 9 -13 28 -23 18 -9 28 -19 21 -21 -6 -2 -24 2 -40
10 -15 8 -44 13 -63 11 -57 -5 -70 3 -70 43 0 29 -3 33 -13 24 -8 -6 -17 -7
-21 -3 -4 4 -11 7 -14 7 -4 1 -16 6 -28 12 -23 13 -108 -18 -274 -101 -52 -27
-133 -65 -180 -86 -47 -21 -137 -63 -200 -93 -63 -29 -142 -67 -175 -82 -336
-157 -443 -208 -462 -221 -22 -14 -23 -21 -23 -134 0 -100 3 -120 15 -120 13
0 15 -22 15 -137 0 -138 -9 -184 -30 -153 -8 13 -10 13 -10 -2 0 -9 4 -19 8
-22 4 -3 89 36 188 85 98 49 203 97 232 106 53 17 70 35 30 30 -23 -2 -23 0
-26 120 -3 122 -3 123 20 121 13 0 30 1 38 3 13 3 14 -13 11 -118 -2 -76 1
-123 7 -123 11 0 266 104 367 150 178 81 356 150 385 149 10 0 11 -2 3 -6 -7
-2 -13 -10 -13 -16 0 -7 -43 -32 -95 -56 -65 -31 -91 -48 -82 -54 7 -5 2 -6
-15 -3 -16 4 -28 2 -28 -4 0 -5 -8 -10 -17 -10 -10 0 -25 -5 -33 -11 -15 -10
-6 -9 54 8 34 9 6 -17 -35 -33 -21 -9 -36 -21 -33 -26 4 -7 9 -7 13 0 8 14 90
46 98 39 3 -4 -7 -11 -23 -17 -33 -13 -175 -80 -247 -117 -26 -14 -55 -22 -63
-19 -8 3 -13 2 -10 -3 3 -5 -74 -45 -172 -89 -345 -157 -527 -243 -539 -255
-8 -8 -13 -88 -15 -272 -2 -143 -6 -266 -8 -273 -3 -8 2 -18 10 -24 15 -10 47
0 100 30 8 5 33 18 55 29 l40 21 -2 102 c-1 58 -6 107 -12 113 -6 6 -11 21
-11 34 0 21 4 23 50 23 46 0 67 -13 38 -22 -9 -3 -14 -38 -16 -113 -4 -102 -3
-107 15 -100 10 4 30 12 46 17 26 10 27 12 28 86 0 43 1 97 3 121 1 33 -3 47
-19 58 -19 14 -18 15 15 8 47 -10 68 -11 113 -2 l37 8 0 -35 c0 -19 6 -37 13
-40 9 -5 9 -7 -1 -12 -28 -13 -42 -38 -42 -75 l0 -40 103 55 c56 30 131 65
167 79 36 13 97 40 135 59 88 44 363 160 433 183 29 10 55 15 59 12 3 -4 18 0
34 8 33 18 52 19 47 4 -2 -6 -37 -25 -78 -43 -41 -18 -91 -40 -110 -49 -19 -8
-136 -61 -260 -117 -124 -56 -241 -110 -260 -121 -19 -10 -89 -43 -155 -72
-211 -94 -284 -131 -278 -141 4 -5 1 -6 -6 -2 -7 5 -35 -7 -66 -28 -30 -20
-61 -36 -68 -36 -7 0 -30 -9 -52 -20 -22 -11 -46 -20 -55 -20 -8 0 -28 -11
-45 -25 -26 -21 -28 -26 -15 -36 13 -9 13 -10 0 -6 -8 2 -17 19 -20 38 -3 24
-6 12 -10 -41 -3 -41 -5 86 -3 284 1 229 -1 365 -8 377 -7 14 -6 23 4 33 8 8
12 27 9 47 -2 19 -6 176 -9 349 -4 257 -7 317 -19 326 -19 15 -18 24 4 25 9 0
-8 9 -38 19 -59 21 -86 19 -76 -5 3 -8 0 -14 -7 -12 -6 1 -13 -9 -15 -23 -2
-13 -10 -29 -17 -35 -13 -11 -31 -161 -41 -345 -3 -63 -8 -117 -10 -119 -2 -2
-5 52 -5 120 -2 117 -14 299 -17 252 -1 -12 -5 -29 -8 -38 -5 -13 -8 -14 -15
-3 -6 9 -9 7 -9 -10 0 -12 -4 -21 -9 -20 -5 2 -20 -13 -33 -32 -14 -19 -31
-34 -40 -34 -16 1 -19 -26 -5 -37 15 -11 16 -87 1 -100 -12 -9 -14 -75 -15
-388 -1 -207 -5 -389 -9 -406 l-8 -30 -2 30 c-1 26 -3 27 -10 10 -4 -11 -8
155 -9 369 -1 214 -4 393 -7 397 -8 14 -38 1 -524 -218 -325 -147 -403 -184
-426 -201 l-24 -17 -2 -393 c-2 -215 -2 -392 0 -392 2 0 67 31 145 69 78 38
152 72 165 76 12 3 22 11 22 16 0 5 5 9 12 9 6 0 46 17 89 37 l76 37 6 86 c4
47 4 109 0 138 -4 39 -2 58 11 77 16 24 16 26 -6 35 -21 8 -20 9 10 9 l32 1 0
-149 c0 -130 -2 -150 -17 -155 -11 -5 -13 -10 -6 -17 11 -11 58 12 75 36 5 6
8 6 8 -2 0 -7 6 -10 13 -7 10 3 12 46 9 192 -2 103 -5 192 -6 197 -2 6 -35 26
-72 45 -67 33 -68 35 -39 40 28 6 132 -12 181 -31 22 -8 31 -54 13 -65 -12 -7
-11 -54 0 -54 13 0 10 -43 -4 -52 -6 -5 -7 -11 0 -15 15 -12 17 -33 2 -33 -8
0 -7 -4 3 -11 12 -9 13 -12 1 -16 -11 -5 -11 -7 0 -14 10 -6 10 -9 2 -9 -7 0
-10 -7 -7 -15 4 -9 0 -15 -9 -15 -10 0 -15 9 -15 28 1 72 -2 215 -6 211 -2 -2
-6 -77 -10 -167 -3 -89 -7 -168 -9 -175 -3 -17 16 -11 103 30 115 54 173 73
187 61 15 -12 13 -58 -2 -58 -5 0 -4 -4 4 -9 10 -7 5 -13 -23 -26 -20 -10 -35
-20 -32 -22 8 -8 76 20 76 32 0 5 9 16 20 23 22 13 27 3 8 -16 -9 -9 -9 -12 0
-12 9 0 11 -57 10 -232 -2 -216 -3 -223 -8 -88 -6 170 -18 167 -23 -5 -2 -93
-3 -81 -4 50 -1 161 -7 225 -22 225 -3 0 -15 -8 -26 -16 -19 -16 -19 -16 5
-10 l25 7 -25 -15 c-14 -8 -27 -11 -30 -7 -3 5 -36 -6 -75 -24 -101 -46 -122
-56 -105 -52 8 2 26 7 40 11 l25 7 -25 -15 c-14 -9 -35 -15 -47 -16 -12 0 -23
-4 -25 -9 -6 -15 -180 -102 -195 -97 -8 3 -12 2 -9 -2 5 -9 -38 -30 -234 -114
-63 -27 -130 -56 -148 -64 -18 -8 -37 -12 -44 -8 -6 4 -8 3 -5 -3 3 -5 -12
-20 -33 -32 l-40 -22 -2 -302 c0 -166 -2 -328 -4 -360 -2 -51 0 -58 14 -52 10
4 26 9 37 12 31 8 163 71 235 114 36 21 99 52 140 70 41 17 170 75 285 129
116 53 225 100 244 104 31 6 33 4 27 -17 -3 -12 -6 -31 -6 -43 0 -16 -30 -35
-153 -97 -85 -42 -159 -77 -165 -77 -6 0 -14 -5 -17 -10 -8 -13 56 12 165 65
47 23 108 53 137 66 29 13 52 29 53 36 0 13 39 38 46 30 3 -3 -2 -12 -11 -21
-9 -9 -12 -16 -6 -16 6 0 11 -10 10 -22 0 -13 -3 -17 -6 -10 -2 6 -9 12 -14
12 -4 0 -5 -8 -2 -17 5 -13 2 -15 -12 -10 -9 4 -25 2 -33 -5 -12 -10 -14 -10
-8 -1 5 9 2 11 -8 7 -9 -3 -13 -10 -10 -15 3 -5 -4 -9 -16 -9 -12 0 -19 -4
-16 -9 3 -5 -1 -12 -10 -15 -8 -3 -13 -2 -10 3 4 5 -5 4 -18 -2 -13 -7 -22
-15 -20 -19 3 -4 -1 -5 -9 -3 -7 3 -24 -3 -37 -15 -13 -11 -32 -20 -43 -20
-11 0 -18 -3 -14 -6 7 -7 -270 -143 -404 -198 -52 -21 -148 -66 -214 -100
l-120 -61 -5 -145 c-3 -86 -7 -129 -11 -105 l-6 40 -2 -45 -3 -45 -9 40 c-4
22 -8 73 -8 113 -1 70 -2 73 -23 70 -20 -3 -23 1 -21 27 2 30 2 30 -15 9 -23
-29 -57 -45 -78 -37 -12 4 -15 3 -10 -5 4 -7 2 -10 -7 -7 -7 3 -38 -5 -68 -18
-29 -13 -60 -22 -66 -20 -14 5 -186 -74 -191 -88 -2 -5 -8 -9 -12 -9 -20 0
-189 -84 -184 -92 3 -4 -1 -8 -8 -8 -7 0 -47 -17 -88 -38 -41 -21 -101 -44
-133 -52 -32 -7 -60 -17 -63 -22 -3 -4 -14 -8 -24 -8 -10 0 -20 -4 -22 -9 -4
-11 -166 -91 -184 -91 -7 0 -14 -4 -16 -9 -4 -11 -48 -25 -48 -14 1 11 118 83
135 83 8 0 15 5 15 10 0 6 4 10 9 10 6 0 47 18 93 39 46 21 128 58 183 82 133
56 363 169 347 169 -7 0 -39 -12 -70 -26 -31 -14 -73 -33 -92 -42 -19 -9 -42
-21 -50 -28 -18 -13 -112 -46 -117 -40 -3 2 13 10 34 16 21 7 49 21 63 30 35
25 110 62 110 55 0 -4 13 3 30 15 16 12 53 29 82 39 38 13 52 23 53 38 1 20
-1 19 -45 -8 -26 -16 -52 -29 -59 -29 -6 0 -19 -4 -29 -9 -9 -6 -38 -17 -64
-27 -26 -9 -45 -20 -43 -24 3 -4 -1 -7 -8 -7 -6 1 -31 -7 -55 -17 -32 -14 -40
-21 -30 -28 9 -6 7 -8 -8 -3 -28 7 -77 -11 -68 -27 5 -7 3 -8 -5 -3 -12 7
-114 -34 -211 -85 -19 -10 -74 -34 -123 -53 l-87 -35 0 32 c0 31 3 33 68 54
65 21 289 125 337 156 18 12 25 12 29 3 3 -8 10 -6 20 7 9 11 16 16 16 10 0
-5 3 -5 8 1 14 20 86 57 224 117 32 14 55 27 52 31 -3 3 3 3 13 1 11 -3 25 2
32 10 8 9 17 16 22 16 4 0 68 29 141 64 124 60 219 90 278 88 17 0 29 7 35 21
7 15 7 138 0 364 -9 321 -11 341 -28 332 -9 -6 -21 -8 -26 -5 -5 4 -31 -3 -58
-15 -26 -11 -59 -26 -73 -32 -14 -5 -33 -9 -44 -8 -12 2 -16 -1 -11 -10 5 -8
4 -10 -4 -5 -15 10 -73 -13 -65 -25 3 -5 -1 -6 -9 -3 -15 5 -62 -15 -377 -167
-113 -55 -211 -99 -217 -99 -7 0 -13 -4 -13 -10 0 -8 -66 -26 -83 -22 -4 1 -7
-2 -7 -7 0 -5 -14 -12 -30 -16 -17 -4 -30 -10 -30 -13 0 -4 -11 -8 -23 -8 -35
-2 -131 -51 -115 -58 7 -3 4 -4 -8 -1 -12 3 -27 -1 -34 -10 -7 -8 -16 -12 -21
-9 -18 11 -8 30 23 43 18 7 98 44 178 81 80 37 177 82 215 100 39 18 65 34 58
37 -6 2 -30 -5 -52 -16 -22 -12 -46 -21 -52 -21 -7 0 -20 -6 -28 -13 -20 -17
-103 -48 -109 -42 -6 6 -10 4 63 39 33 17 66 29 72 27 7 -1 13 3 13 9 0 12
-15 13 -38 1 -9 -5 -51 -25 -92 -45 -52 -24 -67 -35 -51 -36 18 0 22 -3 14
-11 -8 -8 -17 -8 -33 1 -12 6 -24 9 -28 6 -3 -3 0 -6 6 -6 7 0 12 -5 12 -11 0
-7 -9 -9 -24 -5 -24 6 -86 -10 -96 -25 -3 -5 -17 -10 -30 -11 -22 -3 -25 1
-25 26 0 23 6 31 25 36 14 4 61 24 105 45 44 20 166 77 270 125 105 48 224
103 265 122 41 20 91 41 110 48 19 8 110 51 202 97 126 63 174 82 192 77 19
-5 35 3 70 32 l45 38 -5 380 -6 381 -22 3 c-21 3 -136 -41 -281 -108 -39 -18
-113 -51 -165 -75 -90 -40 -164 -75 -340 -158 -392 -183 -458 -217 -464 -233
-3 -7 -4 -58 -3 -113 2 -62 -1 -93 -6 -79 -4 12 -13 25 -19 29 -7 4 -6 13 2
29 10 18 9 24 -1 31 -10 6 -11 9 -1 9 6 0 12 5 12 10 0 6 -16 10 -35 10 -39 0
-55 21 -36 44 9 11 8 15 -5 20 -13 5 -15 14 -11 43 4 20 11 39 17 43 6 4 8 18
5 32 -7 28 -94 73 -125 63 -9 -3 -55 9 -101 26 -121 45 -126 44 -161 -19 -57
-105 -59 -125 -68 -667 -5 -275 -9 -542 -9 -594 -1 -149 -9 -101 -15 83 -2 92
-7 170 -10 174 -3 3 -6 -6 -7 -19 -1 -30 -27 -101 -28 -76 -1 15 -12 17 -80
17 l-80 0 -4 43 c-2 26 -5 11 -7 -43 -3 -79 -4 -75 -11 55 -8 172 -11 1565 -3
1565 3 0 18 -9 33 -19 15 -11 47 -27 72 -37 24 -9 48 -21 54 -26 5 -4 16 -8
24 -8 8 0 25 -10 37 -21 l23 -22 65 32 c36 17 72 31 80 31 9 0 16 4 16 10 0 5
3 9 8 9 14 -3 72 23 72 32 0 6 6 9 13 8 26 -3 38 1 31 13 -5 8 0 9 14 6 12 -4
22 -2 22 3 0 5 4 9 10 9 5 0 42 15 82 34 40 18 104 48 141 65 126 59 250 111
264 111 7 0 13 3 13 8 0 4 21 16 48 26 49 20 166 73 238 107 23 10 44 19 47
19 3 0 38 15 79 34 40 19 105 49 143 67 39 18 72 33 75 34 7 2 42 18 180 80
102 46 175 78 275 120 34 15 105 47 220 100 44 20 113 50 152 66 40 16 81 33
90 38 10 6 46 22 81 37 34 15 61 29 59 31 -5 4 -149 -54 -289 -117 -106 -49
-422 -188 -568 -250 -36 -16 -105 -46 -155 -68 -154 -68 -415 -182 -535 -234
-154 -67 -260 -114 -348 -154 -40 -19 -76 -34 -80 -34 -4 0 -20 -7 -35 -15
-15 -8 -71 -33 -125 -56 -53 -22 -114 -49 -137 -59 -45 -21 -163 -70 -213 -90
-25 -10 -36 -10 -45 -1 -6 6 -18 11 -28 11 -9 0 -49 17 -90 38 -125 65 -119
58 -119 133 l0 66 82 36 c46 19 202 88 348 152 146 64 310 136 365 160 121 51
667 291 975 428 124 55 412 182 640 282 228 100 534 235 680 300 146 64 312
137 370 162 57 24 125 54 150 65 25 12 95 42 155 68 93 40 503 221 600 265 30
14 78 34 333 143 78 34 155 68 170 76 15 9 30 15 34 16 3 0 53 -20 110 -44z
m128 -1531 c0 -80 -3 -145 -7 -145 -19 1 -29 18 -32 55 -3 41 -31 88 -31 52 0
-10 5 -15 10 -12 6 4 10 -7 9 -27 -1 -31 -2 -31 -9 -8 l-7 25 -5 -30 c-3 -16
-6 25 -7 92 -1 132 3 142 57 143 22 0 22 -1 22 -145z m-722 53 l82 -31 0 -88
c0 -72 -3 -89 -15 -89 -8 0 -24 -9 -35 -20 l-20 -20 0 95 c0 78 -3 95 -15 95
-8 0 -15 5 -15 11 0 14 -30 38 -48 39 -7 0 -10 -4 -7 -10 3 -6 -1 -7 -9 -4 -9
3 -16 2 -16 -4 0 -6 -3 -18 -7 -28 -5 -14 -2 -16 15 -12 17 5 22 2 22 -13 0
-12 -7 -19 -20 -19 -15 0 -20 -7 -20 -26 0 -19 4 -25 15 -20 8 3 15 2 15 -3 0
-5 -9 -11 -21 -14 -12 -3 -18 -10 -15 -16 4 -6 -2 -16 -13 -23 -14 -9 -17 -16
-10 -25 11 -13 4 -33 -12 -33 -15 0 -12 240 4 241 10 0 10 2 0 6 -13 5 -18 35
-7 46 10 10 62 -3 152 -35z m-603 -307 c1 -11 -6 -22 -16 -24 -12 -3 -18 -18
-21 -53 -5 -59 -3 -63 20 -39 9 10 11 15 5 11 -8 -4 -13 -1 -13 8 0 9 4 16 9
16 5 0 12 12 14 28 3 18 4 12 6 -17 1 -34 -4 -51 -21 -68 -12 -13 -16 -23 -10
-23 7 0 12 4 12 9 0 5 7 11 15 15 13 4 13 2 5 -14 -5 -10 -19 -22 -30 -25 -11
-3 -20 -11 -20 -17 0 -6 -9 -8 -21 -5 -12 3 -22 0 -26 -8 -3 -11 -8 -11 -17
-3 -11 11 -12 24 -8 106 3 53 26 33 33 -29 6 -45 7 -40 7 36 -1 120 -2 113 35
117 38 4 40 3 42 -21z m2420 -66 c6 0 11 -61 13 -157 1 -87 0 -158 -3 -158 -4
0 -15 5 -26 10 -18 10 -19 23 -19 166 0 122 3 153 13 147 6 -4 17 -8 22 -8z
m-3291 -511 c13 -5 16 -26 16 -130 0 -76 4 -124 10 -124 6 0 10 -4 10 -10 0
-5 -6 -10 -13 -10 -8 0 -13 -15 -14 -42 -3 -59 -23 -75 -24 -17 -2 177 -11
275 -28 289 -9 8 -23 23 -30 33 -12 15 -10 17 22 17 19 0 42 -3 51 -6z m2371
-284 c28 -12 79 -36 115 -52 177 -82 209 -96 256 -116 27 -11 86 -37 130 -58
43 -20 125 -56 182 -80 128 -55 456 -222 460 -235 6 -16 -15 -10 -63 16 -25
14 -45 23 -45 21 0 -5 -49 16 -167 70 -29 13 -65 27 -80 30 -16 4 -30 10 -33
14 -5 7 -75 40 -84 40 -3 0 -47 20 -98 44 -51 24 -115 54 -143 66 -27 12 -84
39 -125 59 -41 21 -102 48 -135 61 -33 13 -76 34 -95 47 -19 13 -41 23 -50 23
-13 0 -13 2 0 11 12 9 11 10 -7 6 -13 -3 -26 0 -30 5 -3 7 -1 8 5 4 7 -4 12
-2 12 4 0 6 -8 10 -17 9 -10 -1 -25 -1 -33 0 -13 1 -13 2 0 11 8 5 10 10 4 10
-5 0 -19 7 -30 16 -19 15 -19 15 1 6 11 -5 43 -20 70 -32z m-3797 -384 l52
-29 0 -151 c0 -83 -3 -161 -6 -173 -5 -19 -31 -39 -40 -30 -2 1 -4 78 -4 169
l-2 167 -54 41 c-91 69 -65 72 54 6z m2577 -117 c-99 -50 -229 -115 -289 -145
-69 -35 -115 -53 -127 -49 -11 4 -19 2 -19 -4 0 -6 -7 -11 -15 -11 -9 0 -33
-9 -55 -20 -31 -16 -37 -24 -33 -41 4 -15 3 -20 -5 -15 -8 5 -12 45 -12 118 0
61 3 108 7 105 3 -4 7 -15 8 -25 3 -44 27 -80 55 -84 16 -2 27 -1 24 4 -3 4 4
8 15 8 12 0 21 4 21 9 0 4 12 6 26 3 19 -3 25 -1 20 6 -5 8 -1 10 9 6 8 -4 26
1 40 10 28 19 75 38 75 31 0 -2 -14 -12 -31 -20 -17 -9 -29 -18 -26 -21 2 -2
17 2 33 11 16 8 34 15 39 15 6 1 48 25 95 54 63 39 84 57 82 71 -3 15 1 17 26
12 21 -4 34 -1 43 9 7 8 18 13 25 10 7 -3 14 -2 16 2 4 10 89 40 113 41 11 0
-61 -41 -160 -90z m2702 -153 c103 -46 238 -106 298 -134 232 -106 421 -190
445 -197 14 -4 86 -35 160 -68 74 -32 174 -75 223 -93 93 -37 350 -148 379
-164 10 -6 25 -10 33 -10 9 0 15 -9 15 -22 0 -13 3 -33 6 -45 5 -17 2 -23 -9
-23 -8 0 -17 4 -19 9 -3 10 -149 84 -188 96 -14 4 -58 23 -98 41 -41 19 -75
34 -77 34 -7 0 -219 92 -292 126 -39 19 -75 34 -80 34 -5 0 -33 11 -62 25 -28
14 -57 22 -63 19 -6 -4 -8 -3 -5 3 7 10 -33 33 -58 33 -7 0 -15 3 -17 8 -1 4
-30 18 -63 31 -33 13 -89 38 -125 54 -68 30 -160 72 -195 87 -207 89 -450 213
-453 233 -6 29 39 15 245 -77z m798 48 c9 -61 3 -374 -7 -374 -4 0 -9 19 -9
43 -1 24 -4 32 -6 19 -3 -13 -10 -21 -16 -19 -9 3 -13 59 -15 190 l-2 187 24
0 c21 0 25 -6 31 -46z m-1280 20 c22 -15 26 -15 40 0 21 21 21 21 84 -14 30
-17 61 -30 68 -30 8 0 12 -6 9 -12 -3 -7 -9 -20 -12 -29 -4 -11 -14 -15 -32
-12 -26 3 -27 3 -4 -8 12 -7 22 -16 22 -21 0 -10 -24 -4 -87 23 -31 13 -43 25
-47 46 -5 22 -18 35 -49 51 -23 11 -36 21 -29 21 7 1 24 -6 37 -15z m332 -110
c54 -25 121 -57 149 -70 28 -13 55 -24 61 -24 5 0 18 -7 29 -15 18 -14 17 -15
-11 -10 -25 5 -27 4 -12 -5 10 -7 25 -9 34 -6 18 7 94 -14 88 -24 -3 -4 8 -10
24 -13 17 -4 63 -22 103 -41 180 -85 249 -116 254 -116 3 0 20 -6 37 -14 18
-7 77 -33 132 -56 55 -23 124 -53 153 -66 29 -13 56 -24 59 -24 4 0 43 -18 88
-39 44 -21 121 -55 170 -75 50 -21 108 -46 130 -56 67 -33 170 -70 196 -71 13
0 18 -3 11 -6 -10 -4 -9 -8 5 -19 12 -9 13 -13 5 -14 -7 0 -10 -4 -7 -10 3 -5
3 -10 -1 -10 -18 0 -164 63 -164 71 0 5 -9 9 -21 9 -13 0 -18 4 -13 12 5 8 2
9 -10 5 -16 -6 -91 17 -111 35 -5 5 3 4 19 -2 16 -6 31 -9 33 -6 2 2 -9 8 -26
14 -16 6 -32 8 -35 5 -12 -12 -528 216 -519 230 4 6 1 7 -6 2 -15 -9 -181 62
-181 77 0 6 12 3 26 -6 14 -10 30 -16 36 -14 6 2 -4 11 -23 20 -23 12 -37 14
-46 7 -8 -7 -18 -7 -30 1 -16 10 -15 10 5 5 12 -4 22 -2 22 4 0 10 -56 26 -79
22 -8 -1 -10 2 -6 10 6 9 0 10 -21 5 -21 -5 -25 -4 -14 4 16 11 9 13 -29 10
-18 -1 -22 2 -18 13 3 9 0 18 -8 21 -9 3 -12 0 -8 -10 7 -18 6 -18 -55 11 -29
14 -56 25 -61 25 -6 0 -12 4 -15 9 -4 5 4 7 16 4 19 -5 21 -3 11 7 -7 8 -28
14 -47 14 -19 1 -31 5 -28 10 3 5 -2 6 -12 3 -19 -7 -108 32 -100 45 3 4 -1 5
-9 3 -7 -3 -27 1 -43 10 -16 8 -22 15 -14 15 8 0 -7 12 -33 25 -27 14 -52 23
-57 20 -5 -3 -10 -1 -12 4 -1 4 -14 12 -27 16 -17 5 -21 4 -16 -5 10 -16 -33
-3 -55 16 -14 11 -25 54 -15 54 2 0 47 -21 102 -46z m-2713 -131 c3 -65 9
-157 13 -204 l6 -86 -129 -63 c-71 -35 -135 -72 -142 -82 -18 -24 -39 -23 -53
4 -10 19 -42 388 -34 396 7 7 311 150 321 151 7 1 13 -41 18 -116z m4055 -109
l2 -215 -31 16 -30 16 0 193 c0 106 3 196 7 199 3 4 16 7 29 7 l22 0 1 -216z
m-5301 -201 c-19 -23 -26 7 -28 107 -1 53 -4 78 -9 65 -6 -15 -10 -8 -16 33
-4 28 -10 52 -14 52 -8 0 -21 -152 -21 -242 0 -48 -15 -71 -31 -47 -5 8 -9 80
-9 162 l0 147 28 0 c15 0 45 9 67 18 l40 18 3 -149 c2 -107 -1 -154 -10 -164z
m2407 242 c0 -13 -14 -24 -45 -35 -25 -9 -283 -136 -575 -283 -681 -341 -657
-331 -698 -304 -13 8 -56 28 -97 45 -55 21 -74 34 -72 46 4 20 -14 21 -21 1
-5 -12 -14 -9 -47 12 l-41 27 78 24 c43 13 85 28 94 32 9 5 74 38 143 74 70
36 133 66 140 66 8 0 16 5 18 10 3 9 68 23 68 15 0 -2 -7 -11 -16 -19 -19 -20
-9 -42 12 -25 8 6 17 9 21 5 3 -3 0 -6 -7 -6 -7 0 -11 -2 -8 -5 3 -3 18 -1 34
6 16 6 40 12 54 14 14 2 70 24 124 49 54 25 104 46 111 46 7 0 47 16 88 35 41
19 79 35 83 35 5 1 27 9 49 20 22 11 46 19 54 20 7 0 39 11 70 25 58 25 171
58 178 51 5 -5 -178 -109 -229 -131 -18 -8 -27 -14 -20 -15 7 0 84 33 170 73
262 123 287 131 287 92z m811 -327 c24 -12 44 -25 44 -29 0 -5 7 -6 15 -3 8 4
21 2 28 -4 6 -5 40 -22 75 -36 34 -15 111 -49 170 -77 59 -29 118 -55 132 -60
68 -21 164 -59 153 -59 -7 0 -15 -11 -19 -24 -5 -22 -7 -23 -32 -10 -31 16
-67 20 -43 5 8 -5 11 -16 7 -26 -5 -15 -4 -16 8 -6 12 10 20 9 40 -4 34 -23
56 -13 56 25 0 16 2 30 5 30 2 0 26 -13 52 -28 50 -30 329 -155 423 -190 30
-11 107 -44 170 -72 63 -28 178 -78 255 -110 77 -32 205 -86 285 -120 80 -34
183 -78 230 -97 47 -20 90 -40 97 -45 7 -5 17 -7 23 -3 6 4 21 4 34 1 19 -5
23 -12 21 -43 -1 -36 -2 -38 -35 -38 -28 0 -36 4 -38 20 -2 12 -15 26 -30 32
-131 55 -307 129 -402 171 -63 27 -252 108 -420 180 -365 157 -494 213 -537
235 -41 22 -43 22 -43 -8 0 -25 -1 -25 -25 -9 -13 8 -29 13 -35 9 -5 -3 -10 0
-10 8 0 21 -38 29 -48 10 -7 -12 -17 -11 -68 7 -32 12 -67 24 -76 27 -20 6
-25 59 -7 65 20 7 -11 53 -44 67 -18 7 -65 29 -105 47 -40 19 -77 34 -81 34
-5 0 -35 16 -67 35 -32 19 -64 35 -71 35 -7 0 -13 5 -13 11 0 5 -5 7 -11 4 -5
-4 -18 0 -27 8 -10 9 -38 25 -62 36 -25 11 -39 21 -31 21 8 0 33 -10 57 -22z
m1115 -179 c-2 -107 -5 -196 -8 -199 -2 -2 -7 0 -11 5 -4 6 -16 12 -27 13 -11
2 -23 7 -27 10 -3 4 -10 84 -14 178 l-7 171 39 11 c22 5 44 9 49 8 6 -2 9 -73
6 -197z m-5450 99 c1 -13 0 -88 -1 -167 -1 -123 -4 -147 -18 -158 -9 -7 -20
-13 -24 -13 -5 0 -8 70 -8 155 0 97 4 155 10 155 6 0 10 7 10 16 0 8 4 12 10
9 6 -3 7 1 4 9 -3 9 -1 16 5 16 6 0 11 -10 12 -22z m5067 -161 c45 -18 79 -37
75 -42 -5 -4 -3 -5 3 -2 13 8 58 -10 219 -88 139 -66 164 -77 250 -110 39 -15
88 -35 110 -45 22 -9 58 -23 80 -30 48 -14 216 -81 230 -91 6 -4 46 -21 90
-39 44 -18 98 -41 120 -51 22 -10 88 -36 148 -58 133 -50 151 -61 134 -85 -12
-16 -16 -16 -52 -3 -64 24 -148 57 -180 71 -16 8 -86 37 -155 66 -69 29 -188
81 -265 115 -77 35 -216 95 -310 134 -93 40 -197 85 -230 100 -178 82 -283
136 -275 141 5 3 -8 11 -30 17 -29 7 -40 7 -40 -1 0 -6 -4 -4 -9 4 -8 11 -6
31 2 30 1 0 39 -15 85 -33z m-1728 -337 c-13 -9 -13 -10 0 -10 20 0 -28 -28
-120 -70 -206 -93 -494 -234 -771 -378 -108 -56 -199 -102 -203 -102 -4 0 -6
9 -4 21 2 15 60 50 243 145 132 69 278 143 325 164 47 21 148 68 225 105 198
96 366 164 305 125z m-1849 -154 c1 -5 -28 -24 -63 -42 -100 -51 -437 -214
-444 -214 -3 0 -47 -19 -97 -43 -51 -24 -115 -54 -144 -67 -29 -13 -49 -28
-46 -33 3 -6 1 -7 -6 -3 -6 4 -40 -6 -76 -23 -36 -17 -71 -31 -78 -31 -6 0
-21 -7 -31 -15 -27 -21 -34 -19 -29 8 8 42 37 64 143 108 58 24 107 44 110 44
3 0 34 14 70 32 36 17 101 47 145 66 44 19 132 60 195 90 241 115 350 153 351
123z m-6 -116 c-4 -6 -94 -53 -201 -106 -131 -64 -201 -93 -214 -89 -13 4 -40
-6 -78 -29 -31 -20 -63 -36 -70 -36 -6 0 -12 -4 -12 -10 0 -14 13 -13 28 2 8
8 12 8 12 1 0 -15 -24 -23 -52 -16 -19 4 -20 3 -8 -7 13 -10 13 -11 -3 -6 -10
3 -48 -11 -90 -32 -39 -20 -88 -43 -107 -50 -19 -8 -49 -21 -67 -30 -18 -9
-35 -14 -38 -11 -3 3 130 73 295 155 165 82 300 147 300 143 0 -4 -15 -14 -32
-23 -18 -8 -26 -16 -18 -16 8 0 31 10 50 22 55 34 284 147 298 148 7 0 10 -5
7 -10z m-1485 -302 c-3 -129 -9 -191 -17 -199 -7 -7 -15 -11 -17 -8 -2 2 -7
69 -10 149 -5 143 -4 153 30 249 14 41 19 -23 14 -191z m3268 -26 c-10 -2 -18
-8 -18 -13 0 -6 -5 -7 -11 -4 -6 4 -13 -1 -15 -11 -3 -12 -34 -31 -87 -53 -45
-19 -142 -61 -215 -93 -73 -32 -138 -55 -144 -52 -6 4 -8 3 -5 -3 5 -8 -132
-80 -273 -143 -19 -8 -55 -26 -80 -40 -39 -21 -190 -90 -197 -90 -2 0 -3 8 -3
18 0 17 99 70 332 176 43 20 119 56 170 80 207 98 419 187 430 180 6 -4 8 -3
5 3 -3 5 13 17 36 27 23 9 49 21 57 25 8 5 20 6 25 3 6 -4 2 -8 -7 -10z
m-2892 -84 c-86 -41 -100 -50 -65 -41 16 5 20 3 14 -6 -6 -10 -2 -11 16 -6 36
10 -35 -36 -91 -60 -25 -10 -79 -38 -121 -62 -42 -24 -79 -43 -82 -43 -4 0
-40 -15 -80 -34 -86 -40 -179 -77 -184 -72 -2 2 20 13 49 26 110 46 459 217
473 232 6 5 -16 -2 -47 -16 -67 -29 -77 -26 -17 4 23 12 39 24 36 26 -3 3 -83
-33 -178 -79 -96 -46 -194 -94 -219 -105 -25 -11 -103 -48 -175 -82 -71 -35
-176 -84 -232 -111 -89 -42 -103 -52 -100 -71 1 -18 -3 -23 -20 -22 -31 1 -29
-12 3 -20 23 -6 25 -10 19 -39 -9 -41 -22 -57 -47 -57 -16 0 -18 -3 -9 -14 13
-15 4 -49 -10 -40 -12 7 -11 55 1 74 11 18 -5 30 -31 23 -12 -3 -19 -14 -19
-29 0 -15 -6 -24 -15 -24 -8 0 -15 7 -15 15 0 22 -30 65 -45 65 -7 0 -15 10
-18 21 -4 14 -11 20 -21 16 -8 -3 -20 1 -26 9 -13 15 -50 20 -50 6 0 -20 -39
-30 -79 -21 -35 8 -44 6 -61 -11 -24 -24 -25 -30 -3 -30 14 0 14 -2 -2 -20
-18 -20 -17 -20 18 -20 20 0 40 6 44 13 4 8 22 17 40 20 25 5 36 1 58 -21 19
-19 23 -28 13 -31 -7 -2 -17 -10 -21 -18 -7 -11 -12 -11 -22 -3 -17 14 -49 6
-97 -27 -30 -20 -45 -24 -72 -19 -20 4 -38 11 -41 16 -3 5 0 8 7 5 9 -4 13 4
13 22 0 32 -22 63 -41 56 -7 -2 -15 5 -19 18 -8 25 7 39 44 39 13 0 21 3 18 7
-4 3 0 11 8 17 21 15 1 90 -21 82 -8 -3 -13 -2 -12 2 37 78 41 82 79 82 32 0
42 9 28 27 -8 9 -8 13 -1 13 6 0 9 7 6 15 -4 9 0 15 7 15 12 0 12 2 1 9 -21
13 45 32 86 25 37 -7 38 -8 47 -76 4 -32 11 -48 21 -48 8 0 14 -4 14 -10 0 -5
4 -10 10 -10 5 0 7 7 4 14 -9 23 51 76 86 76 15 0 31 -6 33 -12 4 -10 8 -9 16
2 9 13 11 13 11 -2 0 -10 6 -18 13 -18 8 0 22 -9 32 -20 10 -11 14 -20 10 -20
-5 0 1 -9 13 -20 23 -22 42 -25 57 -11 14 13 584 297 615 306 13 4 72 30 130
57 157 75 181 84 225 87 21 1 41 4 44 6 2 3 9 1 14 -2 6 -4 -24 -24 -67 -45z
m3267 -93 c51 -30 48 -31 -23 -5 -66 24 -84 20 -205 -50 -45 -26 -95 -52 -111
-57 -26 -10 -27 -11 -10 -19 11 -4 42 -23 70 -41 28 -19 62 -36 76 -40 14 -3
30 -10 36 -14 24 -19 312 95 335 133 4 6 84 -27 195 -80 104 -49 214 -99 244
-110 67 -25 184 -77 225 -99 17 -10 46 -25 65 -36 24 -12 27 -17 12 -13 -19 4
-21 2 -12 -9 7 -8 9 -19 5 -25 -3 -6 3 -10 14 -10 23 0 28 -15 9 -23 -7 -3 -4
-6 7 -6 11 -1 30 -8 43 -16 33 -24 160 -85 174 -85 7 0 4 6 -8 13 -87 52 -99
62 -79 65 11 2 25 9 30 14 7 7 3 9 -13 5 -13 -3 -21 -3 -18 0 8 8 -42 33 -70
35 -13 1 -20 6 -16 10 9 9 94 -18 197 -64 99 -43 126 -55 159 -68 16 -6 26
-13 23 -16 -6 -6 -34 2 -99 30 -31 13 -37 13 -42 1 -3 -9 0 -12 9 -9 7 3 44
-8 82 -24 37 -17 81 -34 97 -38 24 -6 26 -8 12 -16 -23 -13 -20 -31 4 -25 11
3 23 1 26 -4 3 -5 14 -9 25 -9 10 0 19 -6 19 -14 0 -12 28 -26 55 -26 6 0 11
23 13 51 2 29 7 60 13 70 15 29 54 34 96 12 162 -85 254 -136 259 -144 3 -6
-3 -20 -14 -32 -11 -12 -27 -46 -37 -74 -9 -29 -21 -53 -26 -53 -6 0 -7 -4 -4
-10 10 -16 33 -12 55 10 12 12 20 15 20 8 0 -10 2 -10 9 0 4 8 12 14 17 14 5
0 34 11 64 26 30 14 60 24 65 23 6 -2 24 -3 40 -2 38 1 145 -40 145 -56 0 -6
-36 -30 -79 -51 -44 -22 -77 -43 -73 -47 3 -3 -1 -3 -11 1 -22 8 -22 -9 0 -27
14 -12 16 -12 8 0 -6 10 -4 13 6 9 41 -17 53 -19 29 -4 -15 9 -19 15 -10 15 8
1 22 -4 30 -9 10 -6 20 -4 32 7 11 10 18 12 18 5 0 -17 -52 -46 -290 -162
-118 -57 -289 -143 -380 -191 -91 -47 -199 -102 -240 -121 -41 -19 -97 -46
-125 -58 -27 -13 -53 -23 -57 -22 -5 1 -8 -13 -9 -30 -1 -18 -5 -44 -9 -58 -7
-21 -8 -19 -7 14 2 29 -3 41 -20 53 -21 14 -23 14 -32 -8 -7 -19 -149 -95
-680 -361 -369 -186 -675 -338 -680 -338 -5 0 -11 20 -12 44 -3 35 -1 43 11
39 8 -3 -9 9 -39 27 -33 20 -61 30 -74 26 -14 -3 -37 6 -66 27 -53 37 -68 45
-176 88 -44 18 -87 32 -97 32 -9 -1 -19 5 -22 13 -3 8 -17 14 -31 14 -14 0
-25 6 -26 13 -1 6 -4 1 -8 -12 l-7 -25 -24 27 c-17 18 -39 28 -70 32 -31 4
-40 3 -30 -3 13 -9 15 -52 14 -299 -1 -158 -2 -472 -3 -698 l-2 -410 26 -20
c14 -12 25 -23 25 -27 0 -5 -99 28 -150 49 -8 3 -17 7 -20 7 -3 1 -31 14 -62
29 -72 34 -108 48 -108 41 0 -11 426 -214 451 -214 14 0 36 -9 48 -19 13 -11
37 -23 54 -27 18 -3 82 -30 142 -59 136 -66 179 -85 196 -85 7 0 31 9 53 19
23 11 118 54 211 96 94 42 292 136 440 210 418 207 542 264 642 296 61 20 97
37 103 50 6 10 15 19 19 19 5 0 141 65 302 144 651 319 727 353 824 368 26 4
44 44 46 99 1 24 1 181 0 349 -1 168 -1 311 -1 318 0 6 8 13 18 13 14 1 15 2
1 6 -12 3 -18 21 -23 71 -8 90 -8 144 2 139 4 -3 6 89 5 203 -2 180 0 208 12
203 18 -6 19 -20 3 -26 -19 -7 36 -27 125 -45 l77 -17 1 -35 c3 -113 1 -135
-14 -138 -9 -2 -18 -13 -20 -25 -3 -15 -5 -10 -6 13 -2 30 -3 32 -11 13 -14
-34 -2 -61 25 -55 23 4 23 3 14 -39 -6 -23 -7 -49 -4 -57 3 -8 -1 -24 -8 -36
-25 -40 -26 -53 0 -82 17 -20 21 -30 11 -33 -7 -2 -31 -15 -52 -29 -21 -13
-54 -29 -73 -36 l-34 -12 49 -32 c74 -48 120 -50 240 -13 75 23 119 31 175 31
69 0 78 2 107 28 41 38 141 87 220 108 36 10 72 25 80 34 8 10 23 20 33 23 28
10 23 87 -8 117 -43 40 -30 125 20 131 35 5 117 -12 184 -37 48 -18 67 -21 77
-13 8 6 22 8 31 4 10 -4 34 -10 53 -12 31 -3 33 -2 17 9 -14 11 0 13 95 15 86
1 127 6 172 22 l58 20 103 -48 c188 -89 295 -177 315 -259 11 -49 11 -174 -1
-166 -3 2 -17 -8 -30 -22 -13 -14 -37 -32 -52 -40 -16 -9 -25 -20 -21 -26 4
-7 3 -8 -4 -4 -22 13 -34 -5 -15 -21 17 -13 16 -13 -4 -4 -27 13 -36 14 -29 2
3 -5 0 -8 -7 -7 -19 2 -337 -157 -331 -166 3 -4 -2 -5 -11 -1 -10 3 -20 2 -24
-3 -3 -5 -17 -18 -31 -29 -20 -16 -22 -16 -11 -2 12 16 12 17 -5 11 -10 -4
-28 -14 -39 -22 -19 -13 -19 -14 5 -7 19 5 21 4 10 -4 -8 -6 -24 -8 -35 -5
-12 3 -31 -3 -45 -14 -14 -10 -51 -29 -82 -42 -31 -13 -55 -27 -52 -31 2 -4
-4 -7 -13 -6 -22 1 -123 -44 -123 -55 0 -5 19 1 43 13 23 12 35 15 27 7 -23
-22 -68 -39 -75 -28 -3 5 -12 7 -20 4 -8 -4 -13 -10 -10 -14 3 -4 -1 -8 -8 -7
-34 1 -48 -4 -41 -15 4 -6 3 -8 -3 -5 -13 8 -115 -42 -108 -53 3 -6 0 -7 -8
-5 -7 3 -39 -6 -71 -21 -43 -20 -55 -29 -45 -36 10 -7 8 -8 -7 -4 -13 4 -50
-8 -100 -32 -43 -21 -98 -47 -121 -57 -29 -13 -39 -22 -35 -33 4 -10 1 -13 -7
-8 -17 11 -103 -23 -95 -36 4 -7 2 -8 -4 -4 -11 7 -142 -50 -142 -61 0 -3 7
-2 16 1 9 3 12 2 9 -5 -4 -6 -14 -8 -22 -4 -22 8 -55 -4 -47 -17 4 -6 2 -8 -4
-4 -6 3 -77 -26 -158 -65 -112 -53 -144 -73 -133 -80 10 -8 9 -9 -8 -4 -14 4
-60 -12 -140 -50 -65 -31 -119 -56 -121 -55 -1 0 -16 -7 -34 -16 -24 -13 -28
-18 -17 -26 11 -8 10 -8 -5 -4 -25 8 -58 -3 -50 -16 4 -7 2 -8 -4 -4 -15 9
-144 -52 -137 -64 3 -6 0 -7 -8 -4 -15 5 -219 -92 -225 -107 -2 -5 -8 -7 -13
-4 -5 3 -18 1 -30 -6 -18 -9 -19 -13 -8 -21 10 -7 8 -8 -7 -4 -14 4 -79 -22
-200 -80 -98 -47 -207 -99 -242 -115 -35 -16 -61 -33 -58 -38 4 -5 -3 -7 -16
-3 -16 4 -19 2 -13 -8 5 -9 4 -11 -3 -6 -15 9 -84 -23 -76 -35 3 -5 -1 -6 -9
-3 -7 2 -128 -51 -268 -119 -630 -308 -682 -326 -1069 -378 -126 -17 -529 -18
-645 -1 -105 15 -337 74 -380 96 -17 9 -33 16 -37 16 -4 0 -115 53 -245 117
-131 65 -244 117 -250 116 -7 0 -13 4 -13 9 0 6 -7 7 -16 4 -8 -3 -12 -2 -9 4
4 6 -8 10 -27 11 -18 0 -27 3 -19 6 9 4 -8 17 -43 34 -32 16 -63 26 -69 22 -5
-3 -7 -2 -4 3 8 14 -188 109 -203 99 -8 -5 -11 -4 -7 2 8 12 -51 39 -73 34 -8
-1 -11 1 -7 5 10 10 -62 46 -76 37 -5 -3 -7 -1 -4 4 9 14 -20 25 -47 18 -15
-5 -17 -4 -7 3 11 8 10 12 -8 21 -12 7 -25 10 -30 7 -5 -3 -16 3 -26 14 -10
11 -22 17 -26 14 -5 -3 -16 2 -25 11 -10 9 -24 13 -38 10 -15 -5 -17 -4 -7 3
11 8 7 14 -20 26 -28 14 -31 14 -15 1 11 -8 16 -15 12 -15 -4 0 -19 9 -33 20
-14 11 -32 20 -39 20 -8 0 -14 5 -14 11 0 5 -5 7 -10 4 -6 -4 -7 -11 -4 -17 5
-7 2 -8 -5 -4 -7 5 -10 14 -7 21 5 14 -14 25 -45 25 -11 0 -22 6 -25 14 -3 9
-12 12 -21 9 -10 -4 -14 -2 -10 4 3 5 -11 17 -31 27 -29 13 -33 13 -18 1 11
-8 24 -15 30 -15 5 0 6 -3 3 -6 -9 -9 -117 49 -117 62 0 13 -30 28 -38 19 -3
-3 1 -5 8 -5 7 0 11 -2 8 -5 -9 -10 -38 7 -31 18 4 6 -2 8 -15 5 -15 -4 -19
-2 -15 9 5 12 1 14 -18 8 -16 -4 -20 -3 -10 3 16 12 -3 27 -21 16 -6 -4 -8 -3
-5 3 4 6 0 14 -9 17 -10 4 -13 2 -8 -7 4 -6 -1 -5 -12 4 -38 32 -66 42 -76 28
-7 -11 -8 -9 -4 4 5 15 2 17 -17 12 -15 -4 -18 -3 -8 3 16 12 -3 27 -21 16 -7
-5 -8 -3 -3 6 6 10 4 12 -11 6 -10 -4 -15 -4 -11 0 9 9 -42 36 -54 28 -5 -3
-9 -2 -9 3 0 4 -23 21 -51 36 -35 20 -59 27 -77 23 -15 -3 -21 -3 -14 0 23 11
12 24 -12 14 -18 -6 -28 -5 -36 5 -6 7 -22 16 -35 19 -14 4 -25 10 -25 15 0
20 -33 42 -54 36 -15 -5 -17 -4 -7 3 11 8 9 11 -10 18 -13 4 -32 7 -43 5 -10
-1 -15 2 -12 7 4 6 1 14 -5 18 -8 4 -9 3 -5 -4 8 -14 4 -15 -18 -6 -9 3 -16
11 -16 18 0 7 -16 11 -39 11 -22 0 -37 3 -35 7 3 5 0 8 -5 8 -6 0 -11 5 -11
11 0 5 5 7 12 3 6 -4 8 -3 5 4 -4 5 -17 8 -30 5 -18 -4 -19 -3 -7 7 13 10 11
11 -7 7 -12 -3 -27 1 -34 9 -6 8 -18 14 -26 14 -8 0 -12 4 -9 8 3 5 -12 16
-32 26 -29 13 -33 13 -18 1 11 -8 24 -15 30 -15 5 0 7 -3 4 -6 -3 -3 -22 4
-42 14 -23 12 -32 22 -24 25 7 3 3 6 -8 6 -22 1 -88 31 -69 31 13 0 -17 20
-30 20 -5 0 -3 -5 5 -10 18 -12 2 -12 -25 0 -13 6 -15 9 -5 9 19 1 -14 25 -50
36 -14 4 -27 11 -30 14 -13 17 -194 102 -207 97 -8 -3 -11 -2 -8 4 3 5 -90 57
-207 115 -117 59 -228 116 -245 127 -18 11 -38 16 -45 12 -7 -4 -10 -3 -5 1 7
9 -21 26 -163 102 -130 70 -210 131 -210 160 0 7 -4 13 -9 13 -16 0 -19 53 -4
76 9 14 10 24 4 28 -20 13 21 97 69 145 45 43 186 135 220 143 8 2 17 6 20 9
10 12 100 48 100 40 0 -4 -10 -13 -22 -20 l-23 -12 23 5 c20 4 22 1 22 -44 0
-66 10 -110 25 -110 7 0 12 -8 11 -17 -1 -13 8 -19 29 -21 17 -2 35 -8 42 -14
7 -5 17 -7 22 -4 5 4 12 2 16 -4 3 -5 15 -10 26 -10 10 0 19 -5 19 -11 0 -11
94 -8 140 5 20 6 22 5 10 -3 -12 -9 -9 -11 14 -9 26 3 29 -1 40 -42 7 -25 15
-54 19 -66 8 -24 -7 -41 -74 -85 l-47 -29 10 -40 c8 -30 22 -48 64 -80 29 -22
64 -41 76 -42 39 -3 142 13 131 20 -6 4 14 8 44 9 31 2 87 12 126 24 119 35
168 107 117 172 l-20 25 25 70 c22 62 34 152 19 152 -3 0 -15 -5 -27 -10 -20
-10 -20 -9 -3 2 11 7 30 22 42 34 12 11 37 27 55 34 19 7 86 40 151 72 l116
59 37 -25 c20 -14 45 -28 56 -31 15 -5 18 -11 13 -23 -5 -10 -11 -120 -14
-247 -4 -170 -8 -229 -17 -228 -6 2 -14 -6 -18 -16 -3 -10 -19 -24 -35 -31
l-30 -12 24 -19 c28 -22 147 -79 289 -138 53 -23 141 -62 195 -87 53 -25 129
-61 168 -80 l71 -33 120 24 c119 24 167 40 233 74 19 10 46 22 60 26 68 19
111 39 108 52 -2 7 -88 56 -193 108 -104 52 -178 93 -164 90 14 -2 101 -41
193 -86 92 -44 169 -79 171 -77 7 6 -7 58 -15 53 -4 -2 -31 4 -61 14 -51 18
-52 20 -26 26 16 4 33 3 41 -4 8 -7 23 -14 35 -16 20 -4 21 0 19 68 -1 71 -1
71 -8 22 -7 -51 -10 -51 -16 -1 -2 16 -9 33 -16 38 -11 8 -10 11 1 15 24 10
-46 32 -82 26 -22 -3 -37 -1 -42 7 -6 9 0 10 24 5 56 -12 33 3 -38 24 -54 17
-161 61 -212 88 -4 2 -7 -34 -8 -79 -2 -84 -10 -170 -17 -177 -2 -2 -5 79 -6
180 0 101 -1 211 -2 244 -1 45 2 60 13 60 15 0 18 -65 7 -142 -7 -41 -6 -43
33 -62 69 -36 193 -82 283 -106 l88 -24 0 53 0 52 -62 13 c-81 17 -137 36
-225 77 -73 34 -86 51 -58 74 8 7 15 19 15 26 0 21 15 17 77 -23 67 -42 214
-113 236 -113 12 0 17 13 19 47 2 38 7 49 23 52 11 2 26 12 33 22 15 22 52 26
52 6 0 -8 -11 -19 -26 -25 -14 -7 -30 -26 -36 -42 -5 -17 -14 -30 -19 -30 -5
0 -9 -7 -9 -15 0 -8 4 -15 10 -15 5 0 6 -9 2 -22 -6 -19 -7 -77 -3 -130 1 -5
14 -8 29 -8 34 0 51 -15 45 -40 -5 -19 -47 -35 -63 -25 -6 4 -10 -22 -10 -65
0 -39 3 -69 8 -67 4 2 28 13 53 25 47 21 69 56 43 66 -8 3 -12 20 -11 45 1 32
5 41 19 41 10 0 21 8 25 18 3 9 31 46 61 81 52 59 55 65 45 92 -8 20 -8 29 1
32 22 8 36 -5 36 -34 0 -16 5 -29 10 -29 7 0 7 -6 0 -20 -9 -16 -6 -22 20 -35
17 -9 46 -18 64 -20 18 -3 53 -16 77 -30 51 -29 100 -32 154 -9 34 14 86 19
138 13 9 -1 17 -10 17 -18 0 -11 -17 -21 -51 -31 l-51 -15 60 -32 c74 -39 103
-36 97 11 -3 17 -8 101 -11 186 -4 85 -7 171 -8 190 -1 19 -3 64 -4 100 -1 37
-6 60 -10 52 -7 -9 -20 -9 -62 4 -60 18 -245 107 -255 124 -9 14 -21 13 -39
-6 -15 -14 -16 -14 -16 1 0 8 -8 19 -17 22 -25 10 -45 31 -39 42 3 4 19 14 36
21 23 10 34 10 43 1 17 -17 54 -13 62 7 12 29 19 259 7 266 -12 7 -75 -20
-282 -123 -177 -88 -436 -218 -463 -233 -11 -5 -21 -7 -25 -4 -3 3 -19 -4 -36
-17 -38 -29 -144 -79 -213 -101 -28 -9 -54 -23 -57 -31 -3 -8 -21 -17 -40 -21
-20 -3 -33 -10 -30 -15 3 -5 0 -9 -6 -9 -7 0 -48 -18 -93 -41 -104 -51 -114
-50 -313 41 -83 38 -163 72 -177 75 -14 4 -28 14 -31 22 -7 16 5 27 62 64 17
11 32 25 32 30 0 14 28 11 33 -3 3 -9 13 -7 35 10 17 12 34 22 38 22 4 0 52
23 107 50 105 54 137 60 68 14 -23 -15 -40 -29 -38 -31 7 -6 83 24 123 49 44
28 85 44 131 53 22 4 30 11 28 23 -2 9 -4 25 -4 34 -1 15 -5 16 -38 4 -62 -21
-101 -29 -83 -16 22 17 -23 8 -155 -30 -60 -17 -129 -34 -153 -37 -39 -5 -42
-4 -42 18 0 13 -9 30 -20 37 -17 10 -36 4 -142 -47 -471 -226 -476 -228 -493
-201 -3 6 0 10 7 10 21 0 567 279 643 328 102 67 154 94 167 86 7 -4 8 -3 4 4
-5 8 0 12 13 12 11 0 78 27 148 61 237 113 253 118 253 91 -1 -12 -58 -45
-180 -106 -99 -49 -180 -93 -180 -98 0 -5 -12 -21 -28 -35 l-27 -27 28 18 c32
19 87 16 143 -9 29 -14 37 -11 297 119 147 73 270 130 272 127 8 -7 6 -81 -2
-79 -5 1 -20 -5 -35 -12 l-28 -13 90 -44 c50 -24 90 -47 90 -51 0 -4 -29 -22
-64 -39 -45 -22 -67 -28 -74 -21 -8 8 -16 6 -27 -6 -9 -9 -21 -14 -26 -11 -5
4 -17 1 -26 -5 -15 -9 -14 -10 7 -5 l25 6 -25 -20 c-31 -26 -17 -26 35 -1 22
11 49 19 60 20 11 0 59 17 107 37 l88 37 0 118 0 118 28 11 c15 6 59 26 97 46
39 20 82 43 97 50 34 17 39 25 28 42 -6 11 -36 -1 -134 -49 l-126 -63 -87 32
c-49 18 -90 33 -93 34 -3 1 -51 -22 -107 -51 -106 -53 -137 -55 -80 -5 32 28
235 133 257 133 5 0 10 5 10 10 0 6 7 10 16 10 8 0 13 4 10 9 -8 12 21 48 30
38 5 -4 2 -12 -6 -17 -17 -11 -9 -13 13 -4 8 3 13 13 10 23 -10 39 157 64 256
38 l45 -12 -3 -62 c-2 -54 0 -62 13 -57 9 3 16 10 16 14 0 12 202 110 213 103
5 -3 24 -7 41 -8 17 -1 78 -25 135 -54 57 -28 110 -51 117 -51 8 0 28 -9 46
-20 19 -11 35 -15 38 -9 14 21 193 29 355 14 l80 -7 22 30 c12 16 33 32 46 36
13 3 76 30 138 59 63 30 164 75 224 102 61 26 139 61 175 77 179 82 273 123
350 153 47 18 148 60 224 94 155 67 148 67 249 6z m-2188 -225 c-17 -27 -311
-175 -340 -171 -59 8 -32 25 270 167 34 16 79 19 70 4z m5199 -43 c12 -46 6
-86 -16 -107 -12 -11 -27 -20 -32 -20 -6 0 -24 -7 -40 -15 -25 -13 -27 -13
-22 0 3 9 0 15 -10 15 -8 0 -13 -4 -9 -9 3 -5 1 -12 -3 -15 -5 -3 -15 6 -23
20 -7 15 -24 30 -36 35 -43 16 -27 43 46 78 40 19 75 30 82 25 7 -4 10 -3 5 4
-3 5 0 12 6 15 23 7 46 -4 52 -26z m-7293 -417 c8 0 35 -20 65 -48 12 -11 12
-16 0 -28 -22 -21 -29 -53 -17 -68 9 -10 7 -15 -6 -20 -10 -4 -19 -3 -20 1 -4
11 -85 4 -97 -8 -6 -5 -15 -9 -22 -9 -14 0 -13 31 1 43 6 5 -2 6 -17 3 -23 -5
-28 -3 -28 13 0 14 -5 19 -15 15 -17 -7 -21 11 -5 21 6 4 8 10 5 15 -3 5 -1
11 5 15 6 4 8 11 5 16 -9 13 31 15 83 3 19 -4 25 1 34 28 6 18 13 27 16 20 2
-6 8 -12 13 -12z m7404 -288 l100 -29 1 -52 c1 -28 -2 -51 -6 -51 -5 0 -15 -3
-24 -6 -12 -5 -16 4 -18 44 l-3 50 -80 -32 c-44 -18 -96 -40 -115 -48 -56 -26
-168 -68 -178 -68 -6 0 -13 18 -17 40 -4 22 -11 42 -16 46 -5 3 -9 26 -8 52 0
30 3 40 8 29 4 -10 11 -18 16 -18 6 0 9 -11 8 -25 -2 -28 0 -29 19 -11 7 7 30
25 51 41 39 30 48 62 20 69 -10 3 -6 4 10 4 25 -1 27 -5 27 -40 0 -32 3 -37
13 -28 11 9 16 3 26 -29 6 -22 16 -40 21 -40 5 0 2 12 -6 28 -17 34 -28 87
-21 106 6 16 8 16 172 -32z m-377 -49 c-2 -44 -7 -67 -16 -69 -7 -1 -8 0 -2 3
16 8 1 23 -23 23 -18 0 -19 -2 -7 -11 11 -8 9 -9 -10 -3 -14 3 -32 11 -40 16
-11 6 -8 7 9 2 16 -4 21 -3 17 5 -9 14 -46 14 -46 0 0 -11 -19 -9 -67 7 -15 5
-15 4 -3 -5 8 -6 38 -18 65 -26 76 -24 145 -58 145 -72 0 -7 -4 -13 -10 -13
-5 0 -10 4 -10 9 0 9 -91 42 -152 55 -15 3 -39 11 -54 16 -26 10 -26 11 -8 31
14 16 26 19 54 15 25 -4 29 -3 15 3 -17 8 -13 12 30 30 28 12 61 28 75 36 14
8 29 15 33 15 4 0 7 -30 5 -67z m-5380 -145 c-2 -6 32 -22 79 -37 l83 -26 0
-42 c0 -35 -3 -43 -18 -43 -10 0 -22 3 -25 7 -14 13 -111 43 -118 35 -4 -4 -9
-27 -12 -52 -2 -25 -4 3 -5 63 -1 66 2 107 8 107 6 0 9 -5 8 -12z m4705 -525
c-7 -2 -13 -9 -13 -14 0 -6 10 -5 23 2 20 10 20 10 7 -4 -8 -9 -64 -41 -125
-72 -80 -41 -116 -55 -135 -50 -16 3 -20 2 -12 -3 10 -7 10 -11 -2 -21 -8 -7
-20 -10 -26 -6 -5 3 -10 1 -10 -5 0 -7 -7 -9 -16 -6 -8 3 -12 2 -9 -4 3 -6 1
-10 -6 -10 -19 0 -453 -203 -601 -281 -21 -11 -42 -17 -48 -14 -18 11 -10 30
18 43 15 7 77 36 137 64 61 28 166 78 235 111 470 226 576 277 585 276 6 0 4
-3 -2 -6z m-5274 -313 c-13 -10 -18 -19 -11 -20 6 0 12 -12 12 -28 0 -26 -2
-27 -45 -24 -25 2 -52 -1 -59 -7 -10 -8 -16 -9 -21 -1 -3 6 -10 8 -14 6 -4 -3
-46 -6 -94 -7 -48 -1 -90 -6 -93 -10 -3 -5 -17 -9 -32 -9 l-27 0 25 13 c16 8
26 23 28 40 3 26 6 27 60 27 69 0 228 19 256 30 35 14 39 11 15 -10z m3970
-359 c-63 -31 -115 -59 -117 -63 -2 -5 -8 -8 -14 -8 -6 0 -75 -31 -153 -70
-78 -38 -147 -70 -153 -70 -6 0 -12 -3 -14 -7 -8 -18 -161 -83 -181 -78 -15 4
-18 3 -9 -3 9 -6 -51 -40 -194 -110 -113 -56 -218 -104 -232 -107 -15 -3 -22
-3 -15 1 7 3 10 11 7 19 -6 15 27 37 48 32 7 -2 10 -2 6 0 -10 6 332 179 490
249 70 31 197 90 282 132 243 118 319 150 343 144 16 -4 -6 -18 -94 -61z
m1137 -36 c-11 -8 -28 -15 -39 -15 -11 0 -15 -4 -11 -11 4 -8 0 -9 -15 -4 -15
4 -21 2 -21 -8 0 -14 -33 -30 -56 -28 -6 1 -17 -6 -24 -14 -7 -8 -19 -15 -26
-15 -8 0 -14 -4 -14 -10 0 -5 -7 -7 -15 -4 -8 4 -15 1 -15 -5 0 -6 -8 -11 -17
-12 -17 0 -32 -7 -151 -71 -28 -16 -57 -28 -65 -28 -7 0 -22 -8 -33 -18 -11
-10 -25 -17 -32 -14 -7 2 -23 -2 -35 -10 -12 -8 -53 -27 -92 -42 -38 -15 -78
-35 -88 -44 -19 -17 -59 -24 -55 -10 2 5 48 28 103 52 55 24 181 83 280 131
99 48 218 105 265 127 47 22 99 46 115 53 41 20 67 19 41 0z m-1101 -515 c-3
-5 -13 -10 -21 -10 -8 0 -14 -4 -14 -10 0 -5 -7 -10 -16 -10 -9 0 -12 -5 -8
-12 4 -6 3 -8 -4 -5 -13 9 -44 -2 -37 -13 5 -9 -42 -25 -64 -21 -8 1 -10 -2
-5 -10 5 -9 1 -11 -15 -6 -17 4 -21 2 -17 -8 3 -9 0 -12 -8 -9 -7 3 -20 -1
-27 -9 -8 -7 -20 -12 -28 -9 -9 3 -11 0 -6 -8 5 -9 2 -10 -15 -5 -13 4 -20 3
-17 -2 3 -5 -3 -10 -14 -10 -11 -1 -31 -11 -45 -22 -15 -12 -33 -21 -41 -21
-8 0 -12 -4 -8 -9 3 -6 -10 -13 -30 -17 -19 -3 -32 -10 -29 -15 3 -5 -3 -9
-13 -9 -11 0 -24 -5 -29 -10 -6 -6 -21 -13 -34 -15 -25 -5 -80 -28 -115 -47
-11 -7 -47 -25 -80 -42 -33 -16 -62 -32 -65 -35 -3 -4 -23 -15 -45 -26 -22
-11 -42 -22 -45 -25 -8 -8 -44 -30 -60 -36 -37 -15 -58 -23 -98 -39 -23 -10
-45 -16 -48 -13 -3 3 62 39 143 80 81 41 247 125 368 186 121 62 249 124 285
139 36 16 117 54 180 85 119 59 135 65 125 48z"/>
<path d="M7125 8461 c33 -17 67 -31 76 -31 37 0 25 -15 -36 -43 -39 -18 -65
-37 -66 -46 0 -9 -2 -28 -4 -43 -2 -16 -3 -28 -2 -28 2 0 34 13 72 30 39 16
78 30 88 30 15 0 18 7 15 47 l-3 47 -80 28 c-116 42 -127 44 -60 9z"/>
<path d="M8302 7678 c-47 -23 -62 -66 -63 -187 -1 -97 -3 -114 -20 -130 -17
-16 -18 -19 -4 -31 9 -7 15 -29 15 -52 0 -49 15 -78 40 -78 17 0 18 3 9 27
-12 31 -3 97 12 88 5 -4 9 0 9 7 0 9 3 9 10 -2 5 -8 10 -11 10 -5 0 5 5 4 11
-2 13 -13 36 -7 61 14 14 13 24 12 80 -7 35 -11 71 -25 80 -30 22 -13 31 -13
23 -1 -3 6 -26 20 -50 32 -25 12 -45 24 -45 25 0 45 -25 222 -36 256 -24 74
-82 105 -142 76z"/>
<path d="M4386 6356 c-49 -25 -93 -49 -99 -55 -9 -9 -11 -260 -2 -269 8 -8
144 62 138 72 -3 5 -1 6 6 2 13 -9 101 22 101 36 0 5 -6 15 -12 22 -11 11 -17
11 -38 -4 -38 -27 -141 -73 -147 -66 -8 8 17 36 32 36 7 0 15 7 19 15 3 8 14
15 25 15 24 0 35 28 19 48 -11 13 -10 15 10 10 33 -9 25 24 -8 33 l-25 7 23 7
c12 4 22 11 22 15 0 5 -10 6 -22 3 -21 -5 -20 -2 7 21 l30 26 -40 -16 c-22 -8
-49 -19 -60 -24 -34 -14 -65 -19 -65 -9 0 6 24 21 53 35 28 13 66 33 82 44 17
11 39 24 50 29 14 7 16 10 5 10 -9 1 -56 -19 -104 -43z"/>
<path d="M3784 3876 c-6 -15 -1 -169 11 -311 4 -49 7 -102 8 -117 1 -14 5 -30
10 -34 13 -13 8 -26 -8 -20 -8 3 -15 3 -15 1 0 -7 78 -55 90 -55 15 0 12 80
-4 86 -8 3 -11 15 -8 30 4 22 22 30 54 25 27 -4 243 95 318 145 41 28 54 30
42 7 -15 -29 -21 -122 -8 -126 24 -9 -12 -41 -65 -58 -30 -10 -56 -19 -58 -19
-3 0 18 16 45 35 31 22 42 35 31 35 -10 0 -25 7 -33 15 -11 11 -12 15 -3 15 7
0 10 3 6 6 -3 3 -45 -8 -94 -24 -48 -16 -109 -35 -135 -43 l-47 -13 0 -121 c1
-108 2 -117 13 -85 8 21 21 36 32 39 39 7 220 84 251 107 17 13 36 24 42 24 7
0 11 -31 11 -83 l0 -83 -52 -26 c-73 -37 -205 -88 -226 -88 -10 0 -23 -5 -29
-11 -9 -9 -13 -2 -18 25 -13 67 -20 36 -17 -76 2 -126 13 -252 19 -227 3 12
24 21 69 29 l64 12 0 37 c-1 41 -14 62 -61 96 l-32 24 74 35 c41 19 83 42 94
51 11 9 14 13 6 9 -9 -5 -12 -3 -7 5 4 6 11 9 15 7 11 -7 54 24 85 60 14 18
37 34 51 36 32 6 32 -4 1 -28 -14 -10 -22 -23 -18 -28 3 -6 7 -67 8 -136 l1
-125 27 -3 c16 -2 26 2 26 10 2 42 -3 362 -6 408 -2 30 -3 76 -4 101 0 39 -4
48 -21 52 -20 5 -21 11 -16 91 l5 86 -37 -21 c-20 -12 -50 -30 -67 -40 -51
-31 -235 -100 -299 -113 -50 -11 -60 -17 -65 -37 -5 -19 -8 -13 -13 25 -4 27
-7 71 -7 99 l0 50 45 -5 45 -6 0 88 0 88 -29 7 c-39 8 -57 30 -42 49 9 11 8
15 -5 20 -26 10 -44 7 -50 -8z"/>
<path d="M7174 3846 c-22 -11 -53 -34 -70 -49 -22 -22 -36 -27 -59 -23 -16 2
-24 2 -16 -1 8 -3 -4 -14 -34 -29 -25 -13 -51 -22 -56 -18 -5 3 -9 1 -9 -4 0
-14 28 -23 34 -11 2 5 4 4 2 -2 -1 -6 -21 -22 -45 -36 -28 -15 -42 -19 -38
-10 4 10 -3 12 -27 8 -28 -4 -29 -5 -8 -10 23 -6 22 -8 -18 -34 -23 -15 -46
-27 -51 -27 -4 0 -23 -8 -41 -18 -18 -10 -55 -31 -83 -46 -27 -16 -57 -34 -65
-41 -8 -7 -34 -21 -57 -30 -24 -10 -43 -21 -43 -27 0 -5 -4 -6 -10 -3 -5 3
-10 1 -10 -4 0 -6 -10 -11 -22 -11 -24 0 -63 -22 -113 -63 l-29 -25 109 -56
c61 -31 127 -66 147 -78 l37 -23 175 88 c95 49 191 99 212 112 l39 23 -28 13
c-27 12 -36 29 -16 29 6 0 47 18 91 40 92 46 104 48 126 20 17 -20 20 -18 224
82 194 96 229 118 194 118 -8 0 -82 32 -165 70 -82 39 -164 73 -181 76 -17 4
-33 11 -36 15 -7 12 -11 10 -60 -15z"/>
<path d="M6072 3531 c-79 -26 -150 -55 -158 -63 -30 -30 -46 -172 -22 -196 8
-8 8 -15 -2 -26 -22 -27 -5 -48 32 -41 19 3 28 3 21 -2 -19 -13 -34 -62 -48
-157 -8 -49 -20 -93 -27 -97 -7 -4 -9 -11 -5 -15 4 -4 -10 -26 -30 -48 l-38
-40 36 27 c42 30 51 27 38 -16 -5 -17 -7 -32 -5 -34 8 -8 108 37 337 154 200
101 247 129 237 139 -18 17 -214 119 -268 139 -25 10 -59 23 -77 31 -17 8 -44
16 -60 19 -15 2 -46 7 -67 10 -43 7 -44 6 31 46 28 15 79 4 64 -15 -8 -10 1
-11 47 -5 97 11 242 64 242 88 0 9 -59 35 -72 32 -5 0 -8 3 -8 7 0 5 -11 14
-24 20 -19 9 -25 20 -28 51 l-3 40 -143 -48z"/>
<path d="M5855 3195 c-3 -8 -7 -22 -10 -31 -3 -10 -12 -14 -27 -10 -13 3 -17
3 -10 0 24 -11 12 -26 -15 -20 -19 5 -24 4 -14 -3 11 -7 -2 -17 -50 -43 -90
-46 -160 -78 -173 -78 -6 0 -18 -9 -26 -19 -7 -11 -18 -17 -22 -14 -5 3 -15
-2 -21 -11 -7 -9 -30 -23 -52 -31 -22 -8 -35 -14 -30 -15 17 -1 -145 -80 -165
-80 -10 0 -20 -6 -23 -13 -2 -6 -38 -30 -78 -51 -127 -67 -126 -59 -15 -110
54 -26 101 -46 104 -46 4 0 31 12 60 27 51 27 66 43 38 43 -24 0 -30 22 -11
37 25 18 35 16 35 -5 0 -16 8 -18 58 -18 52 1 57 -1 60 -22 3 -19 6 -21 18
-11 9 7 14 31 14 65 0 38 5 59 18 72 9 9 71 46 136 82 149 81 188 117 209 190
28 100 30 117 12 124 -9 3 -18 0 -20 -9z"/>
</g>
</svg>
